<?xml version="1.0" encoding="utf-8"?>
<!-- Generator: Adobe Illustrator 17.0.0, SVG Export Plug-In . SVG Version: 6.00 Build 0)  -->
<!DOCTYPE svg PUBLIC "-//W3C//DTD SVG 1.1//EN" "http://www.w3.org/Graphics/SVG/1.1/DTD/svg11.dtd">
<svg version="1.1" id="Capa_1" xmlns="http://www.w3.org/2000/svg" xmlns:xlink="http://www.w3.org/1999/xlink" x="0px" y="0px"
	 width="1024px" height="1024px" viewBox="0 88 1024 1024" enable-background="new 0 88 1024 1024" xml:space="preserve">
<g>
	<g>
		<path fill="#DD0707" d="M512,88C229.231,88,0,317.231,0,600s229.231,512,512,512s512-229.231,512-512
			C1023.68,317.363,794.637,88.32,512,88z M989.44,582.933h-68.267c-3.968-96.749-42.212-188.932-107.895-260.079l48.247-48.247
			C939.972,358.579,985.404,468.09,989.44,582.933z M529.067,122.56c114.844,4.036,224.354,49.468,308.326,127.915l-48.247,48.247
			c-71.147-65.683-163.33-103.927-260.079-107.895V122.56z M494.933,122.56v68.267c-96.749,3.968-188.932,42.212-260.079,107.895
			l-48.247-48.247C270.579,172.028,380.09,126.596,494.933,122.56z M162.475,274.607l48.247,48.247
			c-65.683,71.147-103.927,163.33-107.895,260.079H34.56C38.596,468.09,84.028,358.579,162.475,274.607z M34.56,617.067h68.267
			c3.968,96.749,42.212,188.932,107.895,260.079l-48.247,48.247C84.028,841.421,38.596,731.91,34.56,617.067z M494.933,1077.44
			c-114.854-4.06-224.367-49.523-308.326-128l48.247-48.247c71.134,65.715,163.319,103.989,260.079,107.981V1077.44z M136.533,600
			c0-207.364,168.102-375.467,375.467-375.467S887.467,392.636,887.467,600S719.364,975.467,512,975.467
			C304.734,975.232,136.768,807.266,136.533,600z M529.067,1077.44v-68.267c96.749-3.968,188.932-42.212,260.079-107.895
			l48.247,48.247C753.421,1027.972,643.91,1073.404,529.067,1077.44z M861.525,925.393L861.525,925.393l-48.247-48.247
			c65.683-71.147,103.927-163.33,107.895-260.079h68.267C985.404,731.91,939.972,841.421,861.525,925.393z"/>
	</g>
</g>
<g>
	<g>
		<path fill="#DD0707" d="M546.133,770.667h-68.267c-37.702,0-68.267,30.564-68.267,68.267c0,37.702,30.564,68.267,68.267,68.267
			h68.267c37.702,0,68.267-30.564,68.267-68.267C614.4,801.231,583.836,770.667,546.133,770.667z M546.133,873.067h-68.267
			c-18.852,0-34.133-15.281-34.133-34.133c0-18.852,15.281-34.133,34.133-34.133h68.267c18.852,0,34.133,15.281,34.133,34.133
			C580.267,857.786,564.986,873.067,546.133,873.067z"/>
	</g>
</g>
<g>
	<g>
		<path fill="#DD0707" d="M479.846,328.794l-3.959-33.894c-168.561,20.028-288.971,172.909-268.943,341.47
			c3.701,31.145,12.147,61.54,25.043,90.129l31.095-14.063c-16.004-35.317-24.239-73.66-24.149-112.435
			C238.852,461.589,342.391,345.03,479.846,328.794z"/>
	</g>
</g>
<g>
	<g>
		<path fill="#DD0707" d="M638.242,319.942c-28.589-12.898-58.984-21.344-90.129-25.043l-3.959,33.894
			C681.609,345.03,785.148,461.589,785.067,600c0.09,38.776-8.145,77.118-24.149,112.435l31.095,14.063
			C861.818,571.768,792.973,389.747,638.242,319.942z"/>
	</g>
</g>
<g>
	<g>
		<path fill="#DD0707" d="M290.133,736.533c-28.277,0-51.2,22.923-51.2,51.2s22.923,51.2,51.2,51.2s51.2-22.923,51.2-51.2
			S318.411,736.533,290.133,736.533z M290.133,804.8c-9.425,0-17.067-7.642-17.067-17.067c0-9.425,7.642-17.067,17.067-17.067
			c9.425,0,17.067,7.642,17.067,17.067C307.2,797.158,299.558,804.8,290.133,804.8z"/>
	</g>
</g>
<g>
	<g>
		<path fill="#DD0707" d="M733.867,736.533c-28.277,0-51.2,22.923-51.2,51.2s22.923,51.2,51.2,51.2s51.2-22.923,51.2-51.2
			S762.144,736.533,733.867,736.533z M733.867,804.8c-9.425,0-17.067-7.642-17.067-17.067c0-9.425,7.642-17.067,17.067-17.067
			s17.067,7.642,17.067,17.067C750.933,797.158,743.292,804.8,733.867,804.8z"/>
	</g>
</g>
<g>
	<g>
		<polygon fill="#DD0707" points="635.494,575.287 595.695,585.954 546.133,557.333 595.695,528.713 635.494,539.379 
			644.335,506.423 614.178,498.334 622.268,468.177 589.295,459.354 578.628,499.153 529.067,527.774 529.067,470.532 558.2,441.4 
			534.067,417.267 512,439.334 489.933,417.267 465.801,441.4 494.933,470.532 494.933,527.774 445.372,499.153 434.705,459.354 
			401.732,468.177 409.822,498.334 379.665,506.423 388.506,539.379 428.305,528.713 477.867,557.333 428.305,585.954 
			388.506,575.287 379.665,608.243 409.822,616.333 401.732,646.49 434.705,655.313 445.372,615.514 494.933,586.893 
			494.933,644.134 465.801,673.267 489.933,697.4 512,675.332 534.067,697.4 558.2,673.267 529.067,644.134 529.067,586.893 
			578.628,615.514 589.295,655.313 622.268,646.49 614.178,616.333 644.335,608.243 		"/>
	</g>
</g>
</svg>
