<?xml version="1.0" encoding="utf-8"?>
<!-- Generator: Adobe Illustrator 17.0.0, SVG Export Plug-In . SVG Version: 6.00 Build 0)  -->
<!DOCTYPE svg PUBLIC "-//W3C//DTD SVG 1.1//EN" "http://www.w3.org/Graphics/SVG/1.1/DTD/svg11.dtd">
<svg version="1.1" id="Layer_1" xmlns="http://www.w3.org/2000/svg" xmlns:xlink="http://www.w3.org/1999/xlink" x="0px" y="0px"
	 width="1024px" height="1200px" viewBox="0 0 1024 1200" enable-background="new 0 0 1024 1200" xml:space="preserve">
<g>
	<g>
		<path fill="#DD0707" d="M1007.658,785.191H16.342c-9.026,0-16.34,7.316-16.34,16.34c0,9.024,7.314,16.34,16.34,16.34h991.316
			c9.026,0,16.34-7.316,16.34-16.34C1024,792.507,1016.684,785.191,1007.658,785.191z"/>
	</g>
</g>
<g>
	<g>
		<path fill="#DD0707" d="M1007.658,850.552H16.342c-9.026,0-16.34,7.316-16.34,16.34c0,9.024,7.314,16.34,16.34,16.34h991.316
			c9.026,0,16.34-7.316,16.34-16.34C1024,857.868,1016.684,850.552,1007.658,850.552z"/>
	</g>
</g>
<g>
	<g>
		<path fill="#DD0707" d="M833.362,915.914H16.342c-9.026,0-16.34,7.316-16.34,16.34c0,9.024,7.314,16.34,16.34,16.34h817.02
			c9.024,0,16.34-7.316,16.34-16.34C849.702,923.23,842.388,915.914,833.362,915.914z"/>
	</g>
</g>
<g>
	<g>
		<path fill="#DD0707" d="M1007.658,981.276H452.085c-9.026,0-16.34,7.316-16.34,16.34s7.314,16.34,16.34,16.34h555.573
			c9.026,0,16.34-7.316,16.34-16.34C1024,988.592,1016.684,981.276,1007.658,981.276z"/>
	</g>
</g>
<g>
	<g>
		<path fill="#DD0707" d="M386.725,981.276H190.64c-9.026,0-16.34,7.316-16.34,16.34s7.314,16.34,16.34,16.34h196.084
			c9.026,0,16.34-7.316,16.34-16.34C403.065,988.592,395.749,981.276,386.725,981.276z"/>
	</g>
</g>
<g>
	<g>
		<path fill="#DD0707" d="M1007.658,1046.636H811.574c-9.026,0-16.34,7.316-16.34,16.34s7.314,16.34,16.34,16.34h196.084
			c9.026,0,16.34-7.316,16.34-16.34C1024,1053.954,1016.684,1046.636,1007.658,1046.636z"/>
	</g>
</g>
<g>
	<g>
		<path fill="#DD0707" d="M838.234,571.675c-6.38-6.382-16.726-6.38-23.11,0l-17.918,17.918l-64.7-64.7
			c-6.384-6.382-16.728-6.382-23.11,0l-64.7,64.702l-17.924-17.922c-6.378-6.382-16.724-6.384-23.108,0
			c-6.382,6.382-6.382,16.728,0.002,23.108l29.476,29.476c3.19,3.192,7.372,4.786,11.554,4.786c4.18,0,8.364-1.594,11.556-4.786
			l64.698-64.702l64.7,64.702c3.066,3.066,7.22,4.786,11.556,4.786c4.336,0,8.488-1.722,11.556-4.786l29.472-29.474
			C844.616,588.401,844.616,578.053,838.234,571.675z"/>
	</g>
</g>
<g>
	<g>
		<path fill="#DD0707" d="M420.331,571.681c-6.384-6.382-16.728-6.382-23.11,0l-17.92,17.92l-64.7-64.702
			c-6.384-6.382-16.728-6.382-23.11,0l-64.7,64.7l-17.92-17.92c-6.382-6.382-16.728-6.384-23.108,0
			c-6.384,6.382-6.384,16.726-0.002,23.108l29.474,29.476c3.066,3.066,7.22,4.786,11.556,4.786c4.336,0,8.488-1.722,11.556-4.786
			l64.7-64.702l64.7,64.702c6.384,6.382,16.728,6.382,23.11,0l29.474-29.474C426.711,588.409,426.711,578.063,420.331,571.681z"/>
	</g>
</g>
<g>
	<g>
		<path fill="#DD0707" d="M1021.236,727.079L734.533,298.596c-3.036-4.534-8.126-7.252-13.58-7.252
			c-5.454,0-10.55,2.722-13.58,7.252L511.999,590.583L316.627,298.602c-3.034-4.532-8.126-7.254-13.58-7.254
			s-10.55,2.722-13.58,7.254L2.762,727.081c-5.02,7.502-3.006,17.65,4.492,22.668c2.79,1.868,5.948,2.762,9.072,2.762
			c5.27,0,10.444-2.544,13.596-7.256l273.123-408.185l189.288,282.893l-71.672,107.11c-5.02,7.5-3.006,17.65,4.494,22.668
			c7.502,5.018,17.65,3.006,22.668-4.494l77.672-116.078c0.09-0.13,0.178-0.26,0.262-0.392L720.95,337.063l273.127,408.191
			c3.15,4.71,8.324,7.256,13.596,7.256c3.124,0,6.282-0.896,9.072-2.762C1024.24,744.727,1026.254,734.581,1021.236,727.079z"/>
	</g>
</g>
<g>
	<g>
		<path fill="#DD0707" d="M512.001,120.682c-63.07,0-114.382,51.31-114.382,114.382s51.312,114.382,114.382,114.382
			s114.382-51.31,114.382-114.382S575.069,120.682,512.001,120.682z M512.001,316.766c-45.052,0-81.702-36.65-81.702-81.702
			s36.65-81.702,81.702-81.702s81.702,36.65,81.702,81.702S557.051,316.766,512.001,316.766z"/>
	</g>
</g>
</svg>
